<?xml version="1.0" encoding="UTF-8" standalone="no"?>
<!-- Created with Inkscape (http://www.inkscape.org/) -->

<svg
   width="71.117332mm"
   height="71.117332mm"
   viewBox="0 0 71.117332 71.117333"
   version="1.1"
   id="svg1"
   xml:space="preserve"
   sodipodi:docname="logo.svg"
   inkscape:version="1.3.2 (1:1.3.2+202311252150+091e20ef0f)"
   xmlns:inkscape="http://www.inkscape.org/namespaces/inkscape"
   xmlns:sodipodi="http://sodipodi.sourceforge.net/DTD/sodipodi-0.dtd"
   xmlns:xlink="http://www.w3.org/1999/xlink"
   xmlns="http://www.w3.org/2000/svg"
   xmlns:svg="http://www.w3.org/2000/svg"><sodipodi:namedview
     id="namedview1"
     pagecolor="#ffffff"
     bordercolor="#666666"
     borderopacity="1.0"
     inkscape:showpageshadow="2"
     inkscape:pageopacity="0.0"
     inkscape:pagecheckerboard="0"
     inkscape:deskcolor="#d1d1d1"
     inkscape:document-units="mm"
     showguides="true"
     inkscape:zoom="1"
     inkscape:cx="112"
     inkscape:cy="254.5"
     inkscape:window-width="1920"
     inkscape:window-height="1137"
     inkscape:window-x="1920"
     inkscape:window-y="27"
     inkscape:window-maximized="1"
     inkscape:current-layer="layer1"
     inkscape:export-bgcolor="#ffffffd2"><sodipodi:guide
       position="22.818975,67.880693"
       orientation="0,-1"
       id="guide33"
       inkscape:locked="false" /><sodipodi:guide
       position="20.449581,70.250088"
       orientation="1,0"
       id="guide34"
       inkscape:locked="false" /><sodipodi:guide
       position="20.447436,69.314187"
       orientation="0,-1"
       id="guide38"
       inkscape:locked="false" /><sodipodi:guide
       position="20.450096,66.447197"
       orientation="0,-1"
       id="guide39"
       inkscape:locked="false" /><sodipodi:guide
       position="21.819266,67.880697"
       orientation="1,0"
       id="guide40"
       inkscape:locked="false" /><sodipodi:guide
       position="19.079896,67.880377"
       orientation="1,0"
       id="guide41"
       inkscape:locked="false" /></sodipodi:namedview><defs
     id="defs1"><rect
       x="216.14421"
       y="32.766376"
       width="207.82497"
       height="101.60398"
       id="rect74" /><linearGradient
       id="linearGradient74"
       inkscape:collect="always"><stop
         style="stop-color:#f7b42f;stop-opacity:1;"
         offset="0"
         id="stop73" /><stop
         style="stop-color:#d36909;stop-opacity:1;"
         offset="1"
         id="stop74" /></linearGradient><linearGradient
       id="linearGradient72"
       inkscape:collect="always"><stop
         style="stop-color:#f7b130;stop-opacity:1;"
         offset="0"
         id="stop71" /><stop
         style="stop-color:#d36909;stop-opacity:1;"
         offset="1"
         id="stop72" /></linearGradient><linearGradient
       id="linearGradient69"
       inkscape:collect="always"><stop
         style="stop-color:#09232e;stop-opacity:1;"
         offset="0"
         id="stop68" /><stop
         style="stop-color:#1f6381;stop-opacity:1;"
         offset="1"
         id="stop69" /></linearGradient><linearGradient
       inkscape:collect="always"
       xlink:href="#linearGradient69"
       id="linearGradient26"
       x1="126.06156"
       y1="283.6864"
       x2="142.40337"
       y2="254.7612"
       gradientUnits="userSpaceOnUse" /><linearGradient
       inkscape:collect="always"
       xlink:href="#linearGradient74"
       id="linearGradient57"
       x1="158.42355"
       y1="237.77263"
       x2="158.42355"
       y2="248.51254"
       gradientUnits="userSpaceOnUse"
       gradientTransform="translate(-17.97995,20.08797)" /><linearGradient
       inkscape:collect="always"
       xlink:href="#linearGradient72"
       id="linearGradient71"
       gradientUnits="userSpaceOnUse"
       gradientTransform="translate(-17.97995,20.08797)"
       x1="158.42355"
       y1="248.51254"
       x2="158.42355"
       y2="237.77263" /></defs><g
     inkscape:label="Layer 1"
     inkscape:groupmode="layer"
     id="layer1"
     transform="translate(-94.930514,-242.30403)"><circle
       style="fill:#ffffff;fill-opacity:1;stroke:#ffffff;stroke-width:0.255594;stroke-opacity:1"
       id="path1"
       cx="130.48918"
       cy="277.8627"
       r="35.43087" /><path
       id="path23"
       style="fill:url(#linearGradient26)"
       d="m 131.9196,252.99541 c -3.09613,-0.067 -9.4095,0.81814 -13.19713,2.24379 -7.11984,2.6799 -12.11055,7.81628 -14.20999,12.92169 0.066,4.01816 1.54739,11.65706 12.0804,10.11308 0.62621,-1.04005 1.52301,-2.10167 2.78226,-3.31814 2.77629,-2.68198 3.55846,-4.10735 4.7377,-8.63048 1.60103,-6.14096 4.40179,-10.04941 8.66459,-12.09229 1.69926,-0.81436 0.99984,-1.19746 -0.85783,-1.23765 z m -15.32672,25.27856 c -10.53301,1.54398 -12.01436,-6.09492 -12.0804,-10.11308 -2.46341,5.99054 -0.9428,11.93817 5.83634,13.82448 2.83538,0.78895 4.9405,0.49627 5.13405,-0.71417 0.16846,-1.05346 0.51911,-2.01582 1.11001,-2.99723 z m 22.41894,21.69216 c 0,-1.3009 -4.23826,-6.45281 -7.07898,-8.605 -1.63556,-1.23913 -1.63389,-1.28854 0.0753,-2.22868 0.72332,-0.39788 2.00311,-1.09956 2.84398,-1.55931 4.36172,-2.38478 7.70572,-2.90703 14.91209,-2.32892 2.9472,0.23644 2.9472,0.23644 2.72036,1.02736 -1.82606,6.36709 -9.74437,9.11968 -14.86183,5.1663 -0.5457,-0.42157 -0.99218,-0.65012 -0.99218,-0.50789 0,0.43755 2.46126,2.89303 3.40637,3.39837 0.74025,0.39581 1.01593,0.81577 1.61321,2.45757 0.39622,1.08911 0.8547,2.30761 1.01885,2.70779 0.29847,0.72761 0.29847,0.72761 -1.67936,0.72761 -1.09367,0 -1.97782,-0.11408 -1.97782,-0.2552 z m 1.05922,-46.09016 c -5.73445,0.0394 -11.91043,4.07671 -13.68341,11.68508 -0.35606,1.52797 -0.98698,3.78831 -1.40146,5.02346 -0.41448,1.23515 -0.73028,2.26903 -0.70228,2.29702 0.13636,0.13636 4.22698,-1.11566 5.83013,-1.78439 1.37829,-0.57492 1.93795,-0.69381 2.31511,-0.49196 1.31326,0.70284 -0.92206,2.10186 -5.44412,3.40755 -10.00197,2.88795 -13.19071,11.45427 -5.5826,14.99701 0.79624,0.37078 1.57532,0.58949 2.41949,0.65061 -1.00162,-5.43246 1.3276,-7.48773 2.17144,-8.04034 0.1301,-0.36672 0.70635,-0.89492 1.80764,-1.45675 2.76504,-1.41062 3.98918,-1.75724 10.02006,-2.83446 9.69173,-1.73111 14.25163,-6.58963 13.07001,-13.92679 -1.04413,-6.48346 -5.76021,-9.56084 -10.82001,-9.52604 z m -14.0777,27.74405 c -0.84384,0.5526 -3.17306,2.60787 -2.17144,8.04034 2.13465,0.15456 4.6983,-0.73003 9.10435,-2.94711 6.66123,-3.35181 8.93855,-3.88405 14.41979,-3.36982 5.53674,0.51943 7.25514,0.18372 8.68888,-1.69603 2.7596,-3.618 1.69774,-11.4147 -2.31665,-17.01187 -0.94821,-1.32207 -0.94827,-1.32213 -0.94827,0.16226 0,5.46064 -3.16876,10.35294 -8.14524,12.57547 -1.68365,0.75192 -2.53194,0.96064 -7.34787,1.80712 -3.99791,0.70268 -6.32879,1.34348 -8.69404,2.38952 -1.83645,0.81216 -2.80006,0.64367 -2.58951,0.0501 z" /><g
       id="g74"><path
         id="path52"
         style="fill:url(#linearGradient57);stroke:none;stroke-width:0.334924"
         d="m 140.44361,257.8606 c 0,0 -0.58049,2.8465 -1.55185,3.81786 -0.97136,0.97136 -3.81785,1.55184 -3.81785,1.55184 0,0 2.78324,0.66246 3.74551,1.62471 0.96222,0.96224 1.62419,3.74551 1.62419,3.74551 z" /><path
         id="path53"
         style="fill:url(#linearGradient71);stroke:none;stroke-width:0.334924"
         d="m 140.44361,257.8606 v 10.73992 c 0,0 0.58047,-2.84648 1.55184,-3.81786 0.97135,-0.97134 3.81786,-1.55236 3.81786,-1.55236 0,0 -2.78327,-0.66195 -3.74551,-1.62419 -0.96227,-0.96227 -1.62419,-3.74551 -1.62419,-3.74551 z" /></g></g></svg>
